#!OML:ASF F:\VICON\USERDATA\INSTALL\rory3\rory3.ASF
:FULLY-SPECIFIED
:DEGREES
124
root 0.20271063233087733 17.30039502305523 65.1472936290852 2.261238746648157 -3.423460265310881 -1.9212366820423132
lfemur -9.808061797854613 -2.334230755137824 -17.56104911194889
ltibia 58.281405345779675
lfoot 5.408599174598686 2.398418203246091
ltoes -5.589850484427233
rfemur -22.820302870022196 2.2126016869344696 29.117000484040968
rtibia 37.78668111034638
rfoot -1.4496631379392708 0.048400570087054895
rtoes -0.9560212393230438
lowerback 12.768904218353677 0.042572545737130874 2.06756483610922
upperback -0.40806042878215165 0.4522431281877197 2.219342094110189
thorax -7.247654527404556 0.18662069801910114 1.4079788577489922
lowerneck -17.91782327414707 -2.8951209849169532 -3.584905171777895
upperneck 18.434067150543232 -3.420328013194774 2.2704436479352643
head 8.795481325565648 -1.5559687947681646 0.9942189895419374
lclavicle -2.2611581993594696e-15 6.850972705067759e-16
lhumerus -49.11236580972931 -4.492284595298418 89.44364687908637
lradius 68.05080606086425
lwrist 19.049212563769867
lhand -26.35432353756195 10.722431562453359
lfingers 7.125019999999999
lthumb 0.029930622807422258 40.5815685399625
rclavicle -2.260077946379177e-15 6.858698418529666e-16
rhumerus -36.941042786295036 -4.380627332271142 -86.07356437192317
rradius 60.8654463048149
rwrist 0.8675308475230357
rhand -16.80987074657113 30.743670025013323
rfingers 7.125019999999999
rthumb 8.431269146673632 1.6963534819994535
125
root 0.21664071389870027 17.259092174294334 65.31192170612657 2.0440254667917204 -3.610439221229851 -2.0555569924483357
lfemur -11.538847269027311 -2.1074932640405826 -17.163818800438623
ltibia 58.46177299599363
lfoot 3.003355824486348 3.2695995733959298
ltoes -5.884406737947971
rfemur -22.717024677165682 1.8307639557837145 29.28279067990587
rtibia 39.65115654285991
rfoot 0.2553747409062408 0.06310171787860153
rtoes 2.0922983604591705
lowerback 12.85049168301311 0.08111129477358958 2.173973320482468
upperback -0.3774844082611885 0.5296841148204513 2.2379853748130127
thorax -7.2601317499516504 0.22153297928431454 1.333235802858122
lowerneck -17.886416218150693 -2.8435338395680843 -3.5783535733031595
upperneck 18.448160149684437 -3.33645258326883 2.191045060726119
head 8.768635530023385 -1.5266188250528114 0.9860555914396667
lclavicle -2.261074607722718e-15 6.851547488242163e-16
lhumerus -49.629967745998385 -3.8818858535730882 89.26860507650782
lradius 66.83381838101771
lwrist 18.475583059508367
lhand -26.269111384882628 10.868931959878942
lfingers 7.125019999999999
lthumb 0.13948806387526602 40.755690073856144
rclavicle -2.2609639929079192e-15 6.852486505641049e-16
rhumerus -36.45372880545583 -3.9463718721730716 -86.10482780278326
rradius 60.86995299897804
rwrist 0.6834321977538989
rhand -16.888300539012796 30.80044051992892
rfingers 7.125019999999999
rthumb 8.354357298497845 1.7150334124035918
126
root 0.2266599893369859 17.226842149204945 65.39284976402665 1.9306270353405737 -3.8929192972212476 -2.127927808000037
lfemur -13.128175505319774 -1.786116894676478 -16.8152601629732
ltibia 58.31177128455463
lfoot 0.6515130307053765 3.7965540386092793
ltoes -5.811145015845237
rfemur -22.968964160334217 1.6586417991751594 29.334683696973737
rtibia 41.96787713517336
rfoot 2.37039021055649 0.08473878033156446
rtoes 7.846407858176422
lowerback 12.87732335059785 0.16912198045734106 2.123323685844573
upperback -0.37408839657670934 0.6305794724697524 2.24755938036762
thorax -7.26508652282207 0.28067803384376067 1.3130230046747922
lowerneck -17.888111826089578 -2.8015464214478114 -3.5515116428803406
upperneck 18.468982952403145 -3.271888342651016 2.11887056822677
head 8.754870086524404 -1.4998856489103611 0.9703019434176745
lclavicle -2.2604667622551818e-15 6.855814074326106e-16
lhumerus -49.725928392726104 -3.6175051650829073 89.16812695926485
lradius 65.72503040913756
lwrist 18.301355450251286
lhand -26.21124456070878 11.060976670286733
lfingers 7.125019999999999
lthumb 0.19653273459456388 40.89655060166036
rclavicle -2.2614450543272742e-15 6.849113406631386e-16
rhumerus -36.04788926400527 -3.6981575126972723 -86.19625884337886
rradius 60.91642233544259
rwrist 0.6209838661775327
rhand -16.926823743779934 30.835559916372848
rfingers 7.125019999999999
rthumb 8.301056409279273 1.7142667892776307
127
root 0.23007767910039378 17.22637517825461 65.26157670094214 1.9538544904612152 -4.168911225439177 -2.6283011872933284
lfemur -14.81536573249658 -1.364022123380744 -16.019650397746375
ltibia 57.849502182670356
lfoot -1.52660649910998 3.7212469209710464
ltoes -4.760767014780429
rfemur -23.278725728293228 1.8051479308828016 29.804329221832322
rtibia 44.16772346027828
rfoot 4.7703897253657805 -0.3335304733833411
rtoes 11.68541291782332
lowerback 12.836787415379732 0.2724478762476406 2.41612464203409
upperback -0.41760314404729854 0.8365153359061301 2.4113590537804326
thorax -7.26097334954357 0.38323323724560765 1.199968624447081
lowerneck -17.899067692995363 -2.759311020491622 -3.5110450788601772
upperneck 18.548600562043777 -3.1990000211236573 2.038900485420423
head 8.785771678494088 -1.4754819742000187 0.946534554319586
lclavicle -2.2611740457133997e-15 6.850843115084939e-16
lhumerus -49.43895390537587 -3.5316805263740414 89.08832985489286
lradius 64.71850090433689
lwrist 17.61120879411595
lhand -25.958768286357433 11.460305784483564
lfingers 7.125019999999999
lthumb 0.400666146566449 41.25159420527251
rclavicle -2.2611209977263855e-15 6.851385435801155e-16
rhumerus -35.845452708152784 -3.6206936589314247 -86.30348439933044
rradius 60.975557409871
rwrist 0.41771525720489944
rhand -16.93968600763405 30.82845946588977
rfingers 7.125019999999999
rthumb 8.257368484293456 1.641251716853197
128
root 0.23035932930384406 17.226432145247024 64.92659517379401 1.960398976450446 -4.156694968992325 -3.3499758974264076
lfemur -16.83111289221665 -1.2207115380184026 -15.030383933407112
ltibia 57.48251562105674
lfoot -3.8095619382371377 3.4682751779645895
ltoes -3.688478446914956
rfemur -22.912239960371494 1.885390400963753 30.50657501647578
rtibia 45.67346635224048
rfoot 6.9367232717094005 -1.4062461545425498
rtoes 14.616969947248014
lowerback 12.865803822313838 0.27751255315593376 2.970083430427065
upperback -0.4767117638946327 0.975008806526699 2.654308154002674
thorax -7.334880285871226 0.4320168535254199 0.9689577572060836
lowerneck -17.908719474097342 -2.7387015379533683 -3.467155399028064
upperneck 18.610824586576484 -3.154027999790773 1.9837371705420663
head 8.807332294699284 -1.4604276502496878 0.9257454025501243
lclavicle -2.261866147939453e-15 6.845997166628186e-16
lhumerus -48.89124614718645 -3.7017497433439828 89.0694411688469
lradius 63.983842869664485
lwrist 16.75240718259868
lhand -25.4907394257712 12.062303997960834
lfingers 7.125019999999999
lthumb 0.7984345479138731 41.773338768025724
rclavicle -2.2604707409456096e-15 6.855944118341534e-16
rhumerus -35.75644752176904 -3.6511889372304327 -86.41361861908452
rradius 61.03242950823631
rwrist 0.24288453453754766
rhand -16.94838782122688 30.76066063221743
rfingers 7.125019999999999
rthumb 8.220463411830423 1.473127754450374
129
root 0.23085207472262648 17.24569968183311 64.5845890854154 2.0842732611541046 -3.909501375616448 -3.468096437654886
lfemur -18.88811924574316 -1.4508269221222054 -14.75693374879556
ltibia 56.678937970208295
lfoot -5.621945325473055 3.147899541604948
ltoes -2.6964772670466406
rfemur -22.440389336445634 1.916892026218048 30.611146056293077
rtibia 46.66977067671772
rfoot 8.249332378724613 -3.096991890015114
rtoes 16.069649548858003
lowerback 12.745772567945888 0.27126009751739955 3.0262537162957788
upperback -0.5248488377969592 0.9767289173029682 2.7504414284433305
thorax -7.338874355010919 0.442520498467298 0.9211351593366167
lowerneck -17.963947892157407 -2.72239846992583 -3.4141791894044906
upperneck 18.645974225343533 -3.1283300023323024 1.9777815467517939
head 8.815696441479515 -1.4510043482531054 0.9243168087940232
lclavicle -2.2619043046871507e-15 6.845727392353157e-16
lhumerus -47.955533939377055 -4.197777014406004 89.18985360785098
lradius 63.61122992106562
lwrist 16.390948417267907
lhand -25.12131489629672 12.553377991896037
lfingers 7.125019999999999
lthumb 1.1536330630359068 42.28279917287617
rclavicle -2.260988734277001e-15 6.852312610991982e-16
rhumerus -35.67205097871771 -3.6267360664395065 -86.53222937312904
rradius 61.045759581157455
rwrist 0.1654010601013729
rhand -16.967390041554747 30.787868858277346
rfingers 7.125019999999999
rthumb 8.176764507808981 1.3654830059048801
130
root 0.2221204972534097 17.251904630505024 64.34570003653118 2.1892643824632563 -3.852272997303161 -3.007064535667285
lfemur -20.396027400158736 -1.565941299501242 -15.211386042929446
ltibia 55.65912647912647
lfoot -7.115366762110792 2.863306718995126
ltoes -2.4770712378135844
rfemur -22.40070828877559 2.1437268888460235 30.12625456872739
rtibia 47.41144711168614
rfoot 8.607849156009012 -5.012213704249064
rtoes 16.839907379382513
lowerback 12.645061565862566 0.3655999248138053 2.5454655944470845
upperback -0.5388769814268924 1.0307979242075804 2.6568054969588704
thorax -7.328341345599612 0.4833572806783959 1.046660910914516
lowerneck -18.025569817089032 -2.7158779970825626 -3.3633717558192338
upperneck 18.627926418747325 -3.124812258294341 2.0105084154866395
head 8.802233783938071 -1.4499154227733975 0.9374564082441633
lclavicle -2.2620919748299087e-15 6.844425884966771e-16
lhumerus -46.67829974773297 -4.942637001252971 89.39978084976414
lradius 63.521712555357
lwrist 16.475200553536123
lhand -24.930692564983318 12.90779748437744
lfingers 7.125019999999999
lthumb 1.3550036519347195 42.68991739789346
rclavicle -2.261359160669149e-15 6.849715399203776e-16
rhumerus -35.67208184668152 -3.65634614052093 -86.68132788073619
rradius 60.951232986446556
rwrist 0.484045657713271
rhand -16.968254530488853 30.8066452212522
rfingers 7.125019999999999
rthumb 8.151376406684617 1.291693771220816
